# xmcd
#
# Track frame offsets: 
#        150
#        17383
#        34033
#        48657
#        67066
#        78997
#        91266
#        109065
#        122582
#        138748
#        156360
#        173806
#        190727
#        213444
#
# Disc length: 3065 seconds
#
# Revision: 0
# Processed by: cddbd v1.5.2PL0 Copyright (c) Steve Scherf et al.
# Submitted via: ExactAudioCopy v0.99pb4
#
DISCID=bc0bf70e
DTITLE=Gloriana - Gloriana
DYEAR=2009
DGENRE=Country
TTITLE0=How Far Do You Wanna Go?
TTITLE1=Wild at Heart
TTITLE2=The Way It Goes
TTITLE3=Lead Me On
TTITLE4=If You're Leavin
TTITLE5=You Said
TTITLE6=Cry on Command
TTITLE7=Over Me Now
TTITLE8=Come and Save Me
TTITLE9=Even If I Wanted To
TTITLE10=All the Things That Mean the Most
TTITLE11=Change Your Mind
TTITLE12=Time to Let Me Go
TTITLE13=Wild at Heart (NUMIX)
EXTD=
EXTT0=
EXTT1=
EXTT2=
EXTT3=
EXTT4=
EXTT5=
EXTT6=
EXTT7=
EXTT8=
EXTT9=
EXTT10=
EXTT11=
EXTT12=
EXTT13=
PLAYORDER=
